<svg width="512" height="512" viewBox="0 0 512 512" fill="none" xmlns="http://www.w3.org/2000/svg">
<rect width="512" height="512" rx="60" fill="black"/>
<path d="M33.3 330.6L114.9 205.2H36.6V170.1H165.3V196.5L85.2 322.2H155.4C158.8 322.2 161.2 322 162.6 321.6C164 321.2 165.3 320.5 166.5 319.5H169.8V322.2V357H33.3V330.6ZM249.9 360.6C233.9 360.6 220.6 356.8 210 349.2C199.4 341.6 191.4 330.6 186 316.2C180.8 301.6 178.2 283.9 178.2 263.1C178.2 242.5 180.8 225.1 186 210.9C191.4 196.5 199.4 185.5 210 177.9C220.6 170.3 233.9 166.5 249.9 166.5C265.7 166.5 278.9 170.3 289.5 177.9C300.1 185.5 308.1 196.5 313.5 210.9C318.9 225.1 321.6 242.5 321.6 263.1C321.6 283.9 318.9 301.6 313.5 316.2C308.1 330.8 300.1 341.9 289.5 349.5C278.9 356.9 265.7 360.6 249.9 360.6ZM249.9 327C256.1 327 261.4 324.8 265.8 320.4C270.2 315.8 273.6 308.8 276 299.4C278.6 289.8 279.9 277.5 279.9 262.5C279.9 248.7 278.6 237.2 276 228C273.6 218.6 270.2 211.6 265.8 207C261.4 202.4 256.1 200.1 249.9 200.1C243.5 200.1 238 202.4 233.4 207C229 211.6 225.6 218.6 223.2 228C221 237.2 219.9 248.7 219.9 262.5C219.9 277.5 221 289.8 223.2 299.4C225.6 308.8 229 315.8 233.4 320.4C238 324.8 243.5 327 249.9 327ZM381.6 362.1C371.6 362.1 361.9 360.5 352.5 357.3C343.1 354.1 335.5 348.8 329.7 341.4L349.5 307.2L351 304.8L354 306.6C354.4 308 354.9 309.6 355.5 311.4C356.1 313 357.5 315 359.7 317.4C362.1 319 364.7 320.3 367.5 321.3C370.5 322.3 373.6 322.8 376.8 322.8C381 322.8 384.6 321.4 387.6 318.6C390.6 315.8 392.9 311.8 394.5 306.6C396.1 301.2 396.9 295 396.9 288V204H363.6V170.1H466.2V204H439.5V292.5C439.5 303.9 437.8 314 434.4 322.8C431.2 331.4 426.8 338.6 421.2 344.4C415.8 350.2 409.6 354.6 402.6 357.6C395.8 360.6 388.8 362.1 381.6 362.1Z" fill="white"/>
<rect x="330" y="305" width="158" height="59" fill="white"/>
<path d="M438.755 305C437.952 311.429 436.501 317.363 434.4 322.8C431.2 331.4 426.8 338.6 421.2 344.4C415.8 350.2 409.6 354.6 402.6 357.6C395.8 360.6 388.8 362.1 381.6 362.1C371.6 362.1 361.9 360.5 352.5 357.3C343.26 354.154 335.761 348.979 330 341.775V340.882L349.5 307.2L350.875 305H351.334L354 306.6C354.4 308 354.9 309.6 355.5 311.4C356.1 313 357.5 315.001 359.7 317.4C362.1 319 364.7 320.3 367.5 321.3C370.5 322.3 373.6 322.8 376.8 322.8C381 322.8 384.6 321.4 387.6 318.6C390.6 315.8 392.9 311.8 394.5 306.6C394.656 306.074 394.801 305.541 394.941 305H438.755Z" fill="black"/>
</svg>
